<svg width="24" height="24" viewBox="0 0 24 24" fill="none" xmlns="http://www.w3.org/2000/svg">
<path d="M5.25002 20.5001H18.748C18.9393 20.4984 19.124 20.5699 19.2643 20.6999C19.4046 20.8299 19.49 21.0086 19.5029 21.1995C19.5158 21.3903 19.4552 21.5789 19.3337 21.7266C19.2122 21.8743 19.0388 21.97 18.849 21.9941L18.748 22.0001H5.25002C5.05999 22 4.87707 21.9278 4.73822 21.7981C4.59937 21.6684 4.51494 21.4908 4.50199 21.3012C4.48904 21.1116 4.54853 20.9242 4.66845 20.7768C4.78837 20.6294 4.95977 20.533 5.14802 20.5071L5.25002 20.5001H18.748H5.25002ZM11.883 2.00309L12 1.99609C12.2449 1.99613 12.4814 2.08605 12.6644 2.24881C12.8474 2.41157 12.9644 2.63584 12.993 2.87909L13 2.99609V15.5861L16.294 12.2931C16.4662 12.1209 16.6953 12.0175 16.9383 12.0022C17.1814 11.9869 17.4216 12.0608 17.614 12.2101L17.708 12.2931C17.8802 12.4653 17.9836 12.6944 17.9989 12.9374C18.0142 13.1804 17.9403 13.4207 17.791 13.6131L17.708 13.7081L12.711 18.7041C12.5389 18.8764 12.3099 18.98 12.0669 18.9955C11.8239 19.011 11.5835 18.9372 11.391 18.7881L11.297 18.7051L6.29302 13.7081C6.11176 13.5286 6.00598 13.2865 5.99733 13.0315C5.98868 12.7766 6.07781 12.5279 6.24648 12.3365C6.41515 12.1451 6.6506 12.0254 6.90464 12.0019C7.15868 11.9784 7.41209 12.0529 7.61302 12.2101L7.70702 12.2931L11 15.5801V2.99609C11 2.75116 11.09 2.51476 11.2527 2.33172C11.4155 2.14869 11.6398 2.03175 11.883 2.00309L12 1.99609L11.883 2.00309Z" fill="white"/>
</svg>
