<svg width="28" height="28" viewBox="0 0 28 28" fill="none" xmlns="http://www.w3.org/2000/svg">
<path d="M13.9897 1.16738C12.3176 1.10653 10.6505 1.38519 9.089 1.98652C7.52755 2.58786 6.10415 3.49939 4.90476 4.6661C3.70536 5.8328 2.75485 7.23047 2.11061 8.77472C1.46636 10.319 1.14176 11.9778 1.15638 13.6509C1.13446 15.375 1.47809 17.0842 2.16463 18.6658C2.85117 20.2474 3.86504 21.6657 5.13945 22.827L5.1998 24.7992C5.21691 25.3444 5.44551 25.8615 5.83722 26.2411C6.22893 26.6207 6.75299 26.8329 7.29844 26.8329C7.5902 26.8325 7.87875 26.772 8.14609 26.6552L10.3871 25.6674C11.5623 25.9803 12.7736 26.1373 13.9897 26.1345C15.6619 26.1954 17.3291 25.9167 18.8906 25.3154C20.4521 24.7141 21.8756 23.8026 23.0751 22.6359C24.2746 21.4692 25.2252 20.0715 25.8696 18.5273C26.5139 16.983 26.8387 15.3242 26.8242 13.6509C26.8387 11.9777 26.5139 10.3189 25.8696 8.7746C25.2252 7.23034 24.2746 5.83268 23.0751 4.66598C21.8756 3.49929 20.4522 2.58777 18.8906 1.98646C17.3291 1.38515 15.6619 1.10651 13.9897 1.16738V1.16738ZM13.9897 23.8012C12.9513 23.8042 11.9173 23.6666 10.9158 23.3921C10.4521 23.267 9.95941 23.3048 9.52016 23.4992L7.52064 24.3811L7.46824 22.6391C7.45664 22.3569 7.38855 22.0799 7.268 21.8245C7.14744 21.5691 6.97688 21.3405 6.7664 21.1522C5.71705 20.2077 4.88179 19.0498 4.31666 17.756C3.75152 16.4623 3.46957 15.0626 3.48972 13.6509C3.48224 12.2861 3.75139 10.934 4.2809 9.67605C4.81041 8.41813 5.58932 7.28055 6.5706 6.33195C7.55188 5.38336 8.71519 4.64343 9.99032 4.15682C11.2654 3.67022 12.6259 3.44702 13.9897 3.50071C15.3517 3.45441 16.709 3.68269 17.981 4.17194C19.2529 4.6612 20.4133 5.40142 21.3931 6.34853C22.373 7.29564 23.1522 8.43025 23.6844 9.6848C24.2166 10.9394 24.4908 12.2882 24.4908 13.6509C24.4908 15.0137 24.2166 16.3625 23.6844 17.6171C23.1522 18.8716 22.373 20.0062 21.3931 20.9533C20.4133 21.9005 19.2529 22.6407 17.981 23.1299C16.709 23.6192 15.3517 23.8475 13.9897 23.8012ZM18.3465 10.0165L15.6486 13.2305L11.7441 10.8311C11.5058 10.6844 11.2227 10.6285 10.9465 10.6735C10.6704 10.7185 10.4196 10.8614 10.2402 11.0761L6.67983 15.3189C6.58082 15.4361 6.50592 15.5717 6.45943 15.718C6.41293 15.8642 6.39575 16.0182 6.40887 16.1711C6.42199 16.3239 6.46516 16.4727 6.53589 16.6089C6.60662 16.7451 6.70353 16.8659 6.82106 16.9646C6.9386 17.0632 7.07444 17.1377 7.22081 17.1837C7.36718 17.2298 7.5212 17.2465 7.67404 17.2329C7.82688 17.2193 7.97553 17.1757 8.11148 17.1045C8.24743 17.0334 8.368 16.9361 8.46628 16.8183L11.3806 13.3467L15.2851 15.745C15.5232 15.8918 15.8063 15.9479 16.0824 15.9031C16.3586 15.8584 16.6094 15.7157 16.789 15.5012L20.1329 11.5158C20.2325 11.3987 20.3079 11.263 20.3549 11.1166C20.4018 10.9702 20.4194 10.8159 20.4065 10.6627C20.3936 10.5095 20.3505 10.3603 20.2797 10.2238C20.209 10.0873 20.1119 9.96614 19.9941 9.86729C19.8764 9.76844 19.7402 9.69385 19.5935 9.64783C19.4468 9.60181 19.2924 9.58526 19.1393 9.59912C18.9861 9.61299 18.8373 9.65701 18.7012 9.72864C18.5651 9.80027 18.4446 9.8981 18.3465 10.0165V10.0165Z" fill="#EEEEEE"/>
</svg>
