<svg width="110" height="42" viewBox="0 0 110 42" fill="none" xmlns="http://www.w3.org/2000/svg">
<path d="M34.024 11.26L33.268 15.628H25.372L24.756 19.1H30.552L29.824 23.272H24.028L22.656 31H17.14L20.64 11.26H34.024ZM40.1433 31.196C38.7806 31.196 37.5673 30.9253 36.5033 30.384C35.458 29.8427 34.646 29.0773 34.0673 28.088C33.4886 27.0987 33.1993 25.9413 33.1993 24.616C33.1993 22.824 33.6193 21.2 34.4593 19.744C35.318 18.288 36.494 17.1493 37.9873 16.328C39.4806 15.5067 41.1513 15.096 42.9993 15.096C44.362 15.096 45.566 15.3667 46.6113 15.908C47.6753 16.4493 48.4966 17.224 49.0753 18.232C49.6726 19.2213 49.9713 20.3787 49.9713 21.704C49.9713 23.5147 49.542 25.148 48.6833 26.604C47.8246 28.0413 46.6486 29.1707 45.1553 29.992C43.662 30.7947 41.9913 31.196 40.1433 31.196ZM40.9833 26.464C41.6366 26.464 42.2153 26.2587 42.7193 25.848C43.242 25.4373 43.634 24.9053 43.8953 24.252C44.1753 23.5987 44.3153 22.9267 44.3153 22.236C44.3153 21.452 44.11 20.8547 43.6993 20.444C43.3073 20.0333 42.794 19.828 42.1593 19.828C41.4873 19.828 40.8993 20.0333 40.3953 20.444C39.91 20.8547 39.5273 21.3867 39.2473 22.04C38.986 22.6933 38.8553 23.3747 38.8553 24.084C38.8553 24.868 39.0513 25.4653 39.4433 25.876C39.8353 26.268 40.3486 26.464 40.9833 26.464ZM58.0561 25.12C58.0374 25.2133 58.0281 25.3253 58.0281 25.456C58.0281 25.7547 58.1121 25.9787 58.2801 26.128C58.4668 26.2587 58.7654 26.324 59.1761 26.324H60.7721L59.9321 31H57.5241C54.1081 31 52.4001 29.5627 52.4001 26.688C52.4001 26.2027 52.4561 25.652 52.5681 25.036L53.4921 19.856H51.5601L52.3721 15.292H54.3041L54.9761 11.484H60.4921L59.8201 15.292H62.6481L61.8361 19.856H59.0081L58.0561 25.12ZM72.3333 15.096C74.3866 15.096 76.0106 15.6467 77.2053 16.748C78.4186 17.8493 79.0253 19.352 79.0253 21.256C79.0253 21.8907 78.9786 22.4507 78.8853 22.936C78.7733 23.5333 78.6613 23.9627 78.5493 24.224H68.1613C68.1426 24.336 68.1333 24.504 68.1333 24.728C68.1333 25.4373 68.3013 25.96 68.6373 26.296C68.9919 26.632 69.4586 26.8 70.0373 26.8C70.9519 26.8 71.6799 26.3893 72.2213 25.568H78.0453C77.6159 26.6507 76.9719 27.6213 76.1133 28.48C75.2733 29.32 74.2746 29.9827 73.1173 30.468C71.9786 30.9533 70.7653 31.196 69.4772 31.196C67.4239 31.196 65.7906 30.636 64.5773 29.516C63.3639 28.396 62.7573 26.856 62.7573 24.896C62.7573 24.336 62.8133 23.748 62.9253 23.132C63.2239 21.4893 63.8119 20.0707 64.6893 18.876C65.5853 17.6627 66.6866 16.7293 67.9933 16.076C69.3186 15.4227 70.7653 15.096 72.3333 15.096ZM73.4813 21.76C73.5186 21.4987 73.5373 21.3307 73.5373 21.256C73.5373 20.6587 73.3506 20.2107 72.9773 19.912C72.6039 19.5947 72.1186 19.436 71.5213 19.436C70.8306 19.436 70.2333 19.632 69.7293 20.024C69.2253 20.416 68.8519 20.9947 68.6093 21.76H73.4813ZM87.4592 18.148C88.2245 17.2333 89.0925 16.5053 90.0632 15.964C91.0338 15.4227 92.0232 15.152 93.0312 15.152L92.0232 21.004H90.4832C89.3258 21.004 88.4205 21.2187 87.7672 21.648C87.1138 22.0773 86.6752 22.824 86.4512 23.888L85.1912 31H79.6752L82.4752 15.292H87.9632L87.4592 18.148ZM99.5066 31.196C98.1439 31.196 96.9306 30.9253 95.8666 30.384C94.8213 29.8427 94.0093 29.0773 93.4306 28.088C92.8519 27.0987 92.5626 25.9413 92.5626 24.616C92.5626 22.824 92.9826 21.2 93.8226 19.744C94.6813 18.288 95.8573 17.1493 97.3506 16.328C98.8439 15.5067 100.515 15.096 102.363 15.096C103.725 15.096 104.929 15.3667 105.975 15.908C107.039 16.4493 107.86 17.224 108.439 18.232C109.036 19.2213 109.335 20.3787 109.335 21.704C109.335 23.5147 108.905 25.148 108.047 26.604C107.188 28.0413 106.012 29.1707 104.519 29.992C103.025 30.7947 101.355 31.196 99.5066 31.196ZM100.347 26.464C101 26.464 101.579 26.2587 102.083 25.848C102.605 25.4373 102.997 24.9053 103.259 24.252C103.539 23.5987 103.679 22.9267 103.679 22.236C103.679 21.452 103.473 20.8547 103.063 20.444C102.671 20.0333 102.157 19.828 101.523 19.828C100.851 19.828 100.263 20.0333 99.7586 20.444C99.2733 20.8547 98.8906 21.3867 98.6106 22.04C98.3493 22.6933 98.2186 23.3747 98.2186 24.084C98.2186 24.868 98.4146 25.4653 98.8066 25.876C99.1986 26.268 99.7119 26.464 100.347 26.464Z" fill="black"/>
<path fill-rule="evenodd" clip-rule="evenodd" d="M16.8655 8.53807C16.8449 8.52558 16.8241 8.51335 16.8032 8.50137C16.3779 8.258 15.8963 8.12999 15.4062 8.13003V8.12878H10.6525C10.1718 8.12891 9.69906 8.25227 9.27955 8.48708C8.86005 8.72189 8.50774 9.06031 8.25625 9.47003L7.1625 11.25H4.5625C3.48506 11.25 2.45175 11.678 1.68988 12.4399C0.928012 13.2018 0.5 14.2351 0.5 15.3125V27.1875C0.5 28.265 0.928012 29.2983 1.68988 30.0602C2.45175 30.822 3.48506 31.25 4.5625 31.25H11.1875L12.4444 26.2225C11.1565 26.0947 9.94563 25.5256 9.02252 24.6025C7.96763 23.5476 7.375 22.1169 7.375 20.625C7.375 19.1332 7.96763 17.7025 9.02252 16.6476C10.0774 15.5927 11.5082 15 13 15C13.7427 15 14.4703 15.1469 15.1439 15.4246L16.8655 8.53807ZM14.6817 17.2733C14.601 17.2328 14.5187 17.1951 14.4351 17.1605C13.9801 16.972 13.4925 16.875 13 16.875C12.0054 16.875 11.0516 17.2701 10.3483 17.9734C9.64509 18.6766 9.25 19.6305 9.25 20.625C9.25 21.6196 9.64509 22.5734 10.3483 23.2767C11.0296 23.9579 11.9458 24.3499 12.9065 24.3739L14.6817 17.2733Z" fill="black"/>
</svg>
