<svg width="28" height="28" viewBox="0 0 28 28" fill="none" xmlns="http://www.w3.org/2000/svg">
<path d="M20.23 6.37016C19.9531 6.37016 19.6824 6.45227 19.4522 6.60611C19.222 6.75994 19.0425 6.97859 18.9365 7.23441C18.8306 7.49022 18.8029 7.77172 18.8569 8.04329C18.9109 8.31486 19.0442 8.56432 19.24 8.76011C19.4358 8.95591 19.6853 9.08924 19.9569 9.14326C20.2284 9.19728 20.5099 9.16956 20.7657 9.06359C21.0216 8.95763 21.2402 8.77819 21.394 8.54796C21.5479 8.31773 21.63 8.04706 21.63 7.77016C21.63 7.39886 21.4825 7.04276 21.2199 6.78021C20.9574 6.51766 20.6013 6.37016 20.23 6.37016V6.37016ZM25.5966 9.1935C25.574 8.22551 25.3927 7.2678 25.06 6.3585C24.7633 5.58048 24.3016 4.87599 23.7066 4.2935C23.1289 3.69549 22.4228 3.2367 21.6416 2.95183C20.7347 2.60902 19.776 2.42357 18.8066 2.4035C17.57 2.3335 17.1733 2.3335 14 2.3335C10.8266 2.3335 10.43 2.3335 9.19331 2.4035C8.22399 2.42357 7.26521 2.60902 6.35831 2.95183C5.5786 3.23959 4.87307 3.69798 4.29331 4.2935C3.69531 4.8712 3.23652 5.57734 2.95165 6.3585C2.60883 7.2654 2.42339 8.22417 2.40331 9.1935C2.33331 10.4302 2.33331 10.8268 2.33331 14.0002C2.33331 17.1735 2.33331 17.5702 2.40331 18.8068C2.42339 19.7762 2.60883 20.7349 2.95165 21.6418C3.23652 22.423 3.69531 23.1291 4.29331 23.7068C4.87307 24.3023 5.5786 24.7607 6.35831 25.0485C7.26521 25.3913 8.22399 25.5768 9.19331 25.5968C10.43 25.6668 10.8266 25.6668 14 25.6668C17.1733 25.6668 17.57 25.6668 18.8066 25.5968C19.776 25.5768 20.7347 25.3913 21.6416 25.0485C22.4228 24.7636 23.1289 24.3048 23.7066 23.7068C24.3043 23.1265 24.7664 22.4214 25.06 21.6418C25.3927 20.7325 25.574 19.7748 25.5966 18.8068C25.5966 17.5702 25.6666 17.1735 25.6666 14.0002C25.6666 10.8268 25.6666 10.4302 25.5966 9.1935V9.1935ZM23.4966 18.6668C23.4882 19.4074 23.354 20.1412 23.1 20.8368C22.9137 21.3446 22.6145 21.8033 22.225 22.1785C21.8466 22.5641 21.3887 22.8627 20.8833 23.0535C20.1876 23.3075 19.4539 23.4417 18.7133 23.4502C17.5466 23.5085 17.115 23.5202 14.0466 23.5202C10.9783 23.5202 10.5466 23.5202 9.37998 23.4502C8.61102 23.4646 7.84534 23.3462 7.11665 23.1002C6.63339 22.8996 6.19656 22.6017 5.83331 22.2252C5.44608 21.8504 5.15063 21.3912 4.96998 20.8835C4.68515 20.1778 4.52716 19.4274 4.50331 18.6668C4.50331 17.5002 4.43331 17.0685 4.43331 14.0002C4.43331 10.9318 4.43331 10.5002 4.50331 9.3335C4.50854 8.57639 4.64675 7.8261 4.91165 7.11683C5.11703 6.62439 5.43229 6.18543 5.83331 5.8335C6.18776 5.43236 6.62582 5.11377 7.11665 4.90016C7.82779 4.64355 8.57731 4.50942 9.33331 4.5035C10.5 4.5035 10.9316 4.4335 14 4.4335C17.0683 4.4335 17.5 4.4335 18.6666 4.5035C19.4072 4.51199 20.141 4.64612 20.8366 4.90016C21.3668 5.09692 21.8427 5.41682 22.225 5.8335C22.6073 6.19187 22.906 6.63002 23.1 7.11683C23.3593 7.82725 23.4935 8.57724 23.4966 9.3335C23.555 10.5002 23.5666 10.9318 23.5666 14.0002C23.5666 17.0685 23.555 17.5002 23.4966 18.6668ZM14 8.01516C12.8168 8.01747 11.6608 8.37044 10.6781 9.02948C9.69539 9.68853 8.93009 10.6241 8.47889 11.7179C8.02768 12.8117 7.91082 14.0147 8.14307 15.1749C8.37532 16.3351 8.94626 17.4005 9.78374 18.2363C10.6212 19.0722 11.6877 19.641 12.8483 19.871C14.009 20.101 15.2118 19.9818 16.3047 19.5285C17.3976 19.0751 18.3317 18.308 18.9888 17.324C19.6459 16.3401 19.9966 15.1834 19.9966 14.0002C19.9982 13.2128 19.8441 12.4329 19.5431 11.7053C19.2421 10.9777 18.8003 10.3168 18.243 9.76056C17.6857 9.20434 17.0239 8.76379 16.2957 8.46425C15.5676 8.16471 14.7874 8.01209 14 8.01516V8.01516ZM14 17.8852C13.2316 17.8852 12.4805 17.6573 11.8416 17.2304C11.2027 16.8035 10.7048 16.1968 10.4107 15.4869C10.1167 14.777 10.0397 13.9959 10.1896 13.2422C10.3395 12.4886 10.7095 11.7964 11.2529 11.2531C11.7962 10.7097 12.4884 10.3397 13.2421 10.1898C13.9957 10.0399 14.7768 10.1168 15.4867 10.4109C16.1966 10.7049 16.8034 11.2029 17.2302 11.8418C17.6571 12.4807 17.885 13.2318 17.885 14.0002C17.885 14.5103 17.7845 15.0155 17.5893 15.4869C17.394 15.9582 17.1078 16.3865 16.7471 16.7473C16.3863 17.108 15.9581 17.3942 15.4867 17.5894C15.0154 17.7847 14.5102 17.8852 14 17.8852V17.8852Z" fill="#EEEEEE"/>
</svg>
