<svg width="28" height="28" viewBox="0 0 28 28" fill="none" xmlns="http://www.w3.org/2000/svg">
<path d="M26.8333 11.3286C26.891 9.65865 26.5258 8.00125 25.7717 6.51023C25.26 5.89842 24.5498 5.48555 23.765 5.34356C20.5188 5.049 17.2591 4.92828 14 4.98189C10.7527 4.92584 7.50482 5.04268 4.26999 5.33189C3.63045 5.44823 3.0386 5.74821 2.56666 6.19523C1.51666 7.16356 1.39999 8.82023 1.28332 10.2202C1.11405 12.7374 1.11405 15.2631 1.28332 17.7802C1.31708 18.5682 1.4344 19.3504 1.63332 20.1136C1.77399 20.7028 2.0586 21.248 2.46166 21.7002C2.9368 22.1709 3.54244 22.488 4.19999 22.6102C6.71523 22.9207 9.24958 23.0494 11.7833 22.9952C15.8667 23.0536 19.4483 22.9952 23.6833 22.6686C24.357 22.5538 24.9797 22.2364 25.4683 21.7586C25.7949 21.4318 26.0389 21.0318 26.18 20.5919C26.5972 19.3116 26.8022 17.9717 26.7867 16.6252C26.8333 15.9719 26.8333 12.0286 26.8333 11.3286ZM11.3633 17.3252V10.1036L18.27 13.7319C16.3333 14.8052 13.7783 16.0186 11.3633 17.3252Z" fill="#EEEEEE"/>
</svg>
